<?xml version="1.0" encoding="UTF-8"?>
<svg version="1.1" xmlns="http://www.w3.org/2000/svg" width="28" height="28">
<path d="M0 0 C0.90234375 -0.01546875 1.8046875 -0.0309375 2.734375 -0.046875 C6.52653462 -0.02443619 9.23005804 0.08256159 12.59375 1.90625 C14.81259099 5.99877894 14.57849853 9.92091891 14.5 14.5 C14.51546875 15.40234375 14.5309375 16.3046875 14.546875 17.234375 C14.52443619 21.02653462 14.41743841 23.73005804 12.59375 27.09375 C8.50122106 29.31259099 4.57908109 29.07849853 0 29 C-1.35351562 29.02320313 -1.35351562 29.02320313 -2.734375 29.046875 C-6.52653462 29.02443619 -9.23005804 28.91743841 -12.59375 27.09375 C-14.81259099 23.00122106 -14.57849853 19.07908109 -14.5 14.5 C-14.51546875 13.59765625 -14.5309375 12.6953125 -14.546875 11.765625 C-14.52443619 7.97346538 -14.41743841 5.26994196 -12.59375 1.90625 C-8.50122106 -0.31259099 -4.57908109 -0.07849853 0 0 Z " fill="#A8E750" transform="translate(14,-0.5)"/>
<path d="M0 0 C4.29 0.99 8.58 1.98 13 3 C16 12.625 16 12.625 16 16 C10.72 16 5.44 16 0 16 C0 10.72 0 5.44 0 0 Z " fill="#1B1C1C" transform="translate(6,6)"/>
</svg>
